<mxfile host="app.diagrams.net" modified="2022-10-12T14:51:18.222Z" agent="5.0 (Windows NT 10.0; Win64; x64) AppleWebKit/537.36 (KHTML, like Gecko) Chrome/106.0.0.0 Safari/537.36" etag="YIJxkW3Y3Ur5olgreHt7" version="20.4.0" type="github">
  <diagram id="UikP9Y_JkUgZuGgkAPA2" name="Página-1">
    <mxGraphModel dx="1038" dy="571" grid="1" gridSize="10" guides="1" tooltips="1" connect="1" arrows="1" fold="1" page="1" pageScale="1" pageWidth="827" pageHeight="1169" math="0" shadow="0">
      <root>
        <mxCell id="0" />
        <mxCell id="1" parent="0" />
        <mxCell id="kI7NMbDENjyl0bNxZZE--3" value="" style="rounded=0;orthogonalLoop=1;jettySize=auto;html=1;entryX=0;entryY=0.25;entryDx=0;entryDy=0;" edge="1" parent="1" source="kI7NMbDENjyl0bNxZZE--1" target="kI7NMbDENjyl0bNxZZE--4">
          <mxGeometry relative="1" as="geometry">
            <mxPoint x="250" y="140" as="targetPoint" />
          </mxGeometry>
        </mxCell>
        <mxCell id="kI7NMbDENjyl0bNxZZE--6" style="edgeStyle=none;rounded=0;orthogonalLoop=1;jettySize=auto;html=1;exitX=1;exitY=0.5;exitDx=0;exitDy=0;" edge="1" parent="1" source="kI7NMbDENjyl0bNxZZE--1" target="kI7NMbDENjyl0bNxZZE--5">
          <mxGeometry relative="1" as="geometry" />
        </mxCell>
        <mxCell id="kI7NMbDENjyl0bNxZZE--48" style="edgeStyle=none;rounded=0;orthogonalLoop=1;jettySize=auto;html=1;exitX=1;exitY=0.5;exitDx=0;exitDy=0;entryX=0;entryY=0.75;entryDx=0;entryDy=0;strokeColor=#000000;endArrow=classic;endFill=1;" edge="1" parent="1" source="kI7NMbDENjyl0bNxZZE--1" target="kI7NMbDENjyl0bNxZZE--47">
          <mxGeometry relative="1" as="geometry" />
        </mxCell>
        <mxCell id="kI7NMbDENjyl0bNxZZE--1" value="Neural networks" style="rounded=1;whiteSpace=wrap;html=1;" vertex="1" parent="1">
          <mxGeometry x="50" y="120" width="120" height="40" as="geometry" />
        </mxCell>
        <mxCell id="kI7NMbDENjyl0bNxZZE--4" value="es uno de los algoritmos más populares en Machine Learning" style="text;html=1;strokeColor=none;fillColor=none;align=center;verticalAlign=middle;whiteSpace=wrap;rounded=0;" vertex="1" parent="1">
          <mxGeometry x="300" y="20" width="190" height="60" as="geometry" />
        </mxCell>
        <mxCell id="kI7NMbDENjyl0bNxZZE--5" value="Cubre un gran rango de conceptos y técnicas" style="text;html=1;strokeColor=none;fillColor=none;align=center;verticalAlign=middle;whiteSpace=wrap;rounded=0;" vertex="1" parent="1">
          <mxGeometry x="300" y="80" width="180" height="40" as="geometry" />
        </mxCell>
        <mxCell id="kI7NMbDENjyl0bNxZZE--46" value="" style="group" vertex="1" connectable="0" parent="1">
          <mxGeometry x="40" y="210" width="510" height="200" as="geometry" />
        </mxCell>
        <mxCell id="kI7NMbDENjyl0bNxZZE--7" value="" style="ellipse;whiteSpace=wrap;html=1;aspect=fixed;" vertex="1" parent="kI7NMbDENjyl0bNxZZE--46">
          <mxGeometry x="70" y="55" width="30" height="30" as="geometry" />
        </mxCell>
        <mxCell id="kI7NMbDENjyl0bNxZZE--8" value="" style="ellipse;whiteSpace=wrap;html=1;aspect=fixed;" vertex="1" parent="kI7NMbDENjyl0bNxZZE--46">
          <mxGeometry x="70" y="115" width="30" height="30" as="geometry" />
        </mxCell>
        <mxCell id="kI7NMbDENjyl0bNxZZE--9" value="" style="ellipse;whiteSpace=wrap;html=1;aspect=fixed;" vertex="1" parent="kI7NMbDENjyl0bNxZZE--46">
          <mxGeometry x="180" width="30" height="30" as="geometry" />
        </mxCell>
        <mxCell id="kI7NMbDENjyl0bNxZZE--21" style="edgeStyle=none;rounded=0;orthogonalLoop=1;jettySize=auto;html=1;exitX=1;exitY=0.5;exitDx=0;exitDy=0;entryX=0;entryY=1;entryDx=0;entryDy=0;endArrow=none;endFill=0;" edge="1" parent="kI7NMbDENjyl0bNxZZE--46" source="kI7NMbDENjyl0bNxZZE--7" target="kI7NMbDENjyl0bNxZZE--9">
          <mxGeometry relative="1" as="geometry" />
        </mxCell>
        <mxCell id="kI7NMbDENjyl0bNxZZE--22" style="edgeStyle=none;rounded=0;orthogonalLoop=1;jettySize=auto;html=1;exitX=1;exitY=0.5;exitDx=0;exitDy=0;entryX=0;entryY=1;entryDx=0;entryDy=0;endArrow=none;endFill=0;" edge="1" parent="kI7NMbDENjyl0bNxZZE--46" source="kI7NMbDENjyl0bNxZZE--8" target="kI7NMbDENjyl0bNxZZE--9">
          <mxGeometry relative="1" as="geometry" />
        </mxCell>
        <mxCell id="kI7NMbDENjyl0bNxZZE--10" value="" style="ellipse;whiteSpace=wrap;html=1;aspect=fixed;" vertex="1" parent="kI7NMbDENjyl0bNxZZE--46">
          <mxGeometry x="180" y="50" width="30" height="30" as="geometry" />
        </mxCell>
        <mxCell id="kI7NMbDENjyl0bNxZZE--20" style="edgeStyle=none;rounded=0;orthogonalLoop=1;jettySize=auto;html=1;exitX=1;exitY=0.5;exitDx=0;exitDy=0;entryX=0;entryY=0.5;entryDx=0;entryDy=0;endArrow=none;endFill=0;" edge="1" parent="kI7NMbDENjyl0bNxZZE--46" source="kI7NMbDENjyl0bNxZZE--7" target="kI7NMbDENjyl0bNxZZE--10">
          <mxGeometry relative="1" as="geometry" />
        </mxCell>
        <mxCell id="kI7NMbDENjyl0bNxZZE--23" style="edgeStyle=none;rounded=0;orthogonalLoop=1;jettySize=auto;html=1;exitX=1;exitY=0.5;exitDx=0;exitDy=0;entryX=0;entryY=0.5;entryDx=0;entryDy=0;endArrow=none;endFill=0;" edge="1" parent="kI7NMbDENjyl0bNxZZE--46" source="kI7NMbDENjyl0bNxZZE--8" target="kI7NMbDENjyl0bNxZZE--10">
          <mxGeometry relative="1" as="geometry" />
        </mxCell>
        <mxCell id="kI7NMbDENjyl0bNxZZE--11" value="" style="ellipse;whiteSpace=wrap;html=1;aspect=fixed;" vertex="1" parent="kI7NMbDENjyl0bNxZZE--46">
          <mxGeometry x="180" y="110" width="30" height="30" as="geometry" />
        </mxCell>
        <mxCell id="kI7NMbDENjyl0bNxZZE--19" style="edgeStyle=none;rounded=0;orthogonalLoop=1;jettySize=auto;html=1;exitX=1;exitY=0.5;exitDx=0;exitDy=0;entryX=0;entryY=0.5;entryDx=0;entryDy=0;endArrow=none;endFill=0;" edge="1" parent="kI7NMbDENjyl0bNxZZE--46" source="kI7NMbDENjyl0bNxZZE--7" target="kI7NMbDENjyl0bNxZZE--11">
          <mxGeometry relative="1" as="geometry" />
        </mxCell>
        <mxCell id="kI7NMbDENjyl0bNxZZE--24" style="edgeStyle=none;rounded=0;orthogonalLoop=1;jettySize=auto;html=1;exitX=1;exitY=0.5;exitDx=0;exitDy=0;entryX=0;entryY=0.5;entryDx=0;entryDy=0;endArrow=none;endFill=0;" edge="1" parent="kI7NMbDENjyl0bNxZZE--46" source="kI7NMbDENjyl0bNxZZE--8" target="kI7NMbDENjyl0bNxZZE--11">
          <mxGeometry relative="1" as="geometry" />
        </mxCell>
        <mxCell id="kI7NMbDENjyl0bNxZZE--12" value="" style="ellipse;whiteSpace=wrap;html=1;aspect=fixed;" vertex="1" parent="kI7NMbDENjyl0bNxZZE--46">
          <mxGeometry x="180" y="170" width="30" height="30" as="geometry" />
        </mxCell>
        <mxCell id="kI7NMbDENjyl0bNxZZE--18" style="edgeStyle=none;rounded=0;orthogonalLoop=1;jettySize=auto;html=1;exitX=1;exitY=0.5;exitDx=0;exitDy=0;entryX=0;entryY=1;entryDx=0;entryDy=0;endArrow=none;endFill=0;" edge="1" parent="kI7NMbDENjyl0bNxZZE--46" source="kI7NMbDENjyl0bNxZZE--7" target="kI7NMbDENjyl0bNxZZE--12">
          <mxGeometry relative="1" as="geometry" />
        </mxCell>
        <mxCell id="kI7NMbDENjyl0bNxZZE--25" style="edgeStyle=none;rounded=0;orthogonalLoop=1;jettySize=auto;html=1;exitX=1;exitY=0.5;exitDx=0;exitDy=0;entryX=0;entryY=0.5;entryDx=0;entryDy=0;endArrow=none;endFill=0;" edge="1" parent="kI7NMbDENjyl0bNxZZE--46" source="kI7NMbDENjyl0bNxZZE--8" target="kI7NMbDENjyl0bNxZZE--12">
          <mxGeometry relative="1" as="geometry" />
        </mxCell>
        <mxCell id="kI7NMbDENjyl0bNxZZE--13" value="" style="ellipse;whiteSpace=wrap;html=1;aspect=fixed;" vertex="1" parent="kI7NMbDENjyl0bNxZZE--46">
          <mxGeometry x="290" y="35" width="30" height="30" as="geometry" />
        </mxCell>
        <mxCell id="kI7NMbDENjyl0bNxZZE--37" style="edgeStyle=none;rounded=0;orthogonalLoop=1;jettySize=auto;html=1;exitX=1;exitY=0.5;exitDx=0;exitDy=0;entryX=0;entryY=0.5;entryDx=0;entryDy=0;strokeColor=#FF0000;endArrow=none;endFill=0;" edge="1" parent="kI7NMbDENjyl0bNxZZE--46" source="kI7NMbDENjyl0bNxZZE--9" target="kI7NMbDENjyl0bNxZZE--13">
          <mxGeometry relative="1" as="geometry" />
        </mxCell>
        <mxCell id="kI7NMbDENjyl0bNxZZE--34" style="edgeStyle=none;rounded=0;orthogonalLoop=1;jettySize=auto;html=1;exitX=1;exitY=0.5;exitDx=0;exitDy=0;entryX=0;entryY=0.5;entryDx=0;entryDy=0;strokeColor=#00FF80;endArrow=none;endFill=0;" edge="1" parent="kI7NMbDENjyl0bNxZZE--46" source="kI7NMbDENjyl0bNxZZE--10" target="kI7NMbDENjyl0bNxZZE--13">
          <mxGeometry relative="1" as="geometry" />
        </mxCell>
        <mxCell id="kI7NMbDENjyl0bNxZZE--31" style="edgeStyle=none;rounded=0;orthogonalLoop=1;jettySize=auto;html=1;exitX=1;exitY=0.5;exitDx=0;exitDy=0;entryX=0;entryY=0.5;entryDx=0;entryDy=0;strokeColor=#3333FF;endArrow=none;endFill=0;" edge="1" parent="kI7NMbDENjyl0bNxZZE--46" source="kI7NMbDENjyl0bNxZZE--11" target="kI7NMbDENjyl0bNxZZE--13">
          <mxGeometry relative="1" as="geometry" />
        </mxCell>
        <mxCell id="kI7NMbDENjyl0bNxZZE--28" style="edgeStyle=none;rounded=0;orthogonalLoop=1;jettySize=auto;html=1;exitX=1;exitY=0.5;exitDx=0;exitDy=0;entryX=0;entryY=0.5;entryDx=0;entryDy=0;strokeColor=#FF0080;endArrow=none;endFill=0;" edge="1" parent="kI7NMbDENjyl0bNxZZE--46" source="kI7NMbDENjyl0bNxZZE--12" target="kI7NMbDENjyl0bNxZZE--13">
          <mxGeometry relative="1" as="geometry" />
        </mxCell>
        <mxCell id="kI7NMbDENjyl0bNxZZE--14" value="" style="ellipse;whiteSpace=wrap;html=1;aspect=fixed;" vertex="1" parent="kI7NMbDENjyl0bNxZZE--46">
          <mxGeometry x="290" y="85" width="30" height="30" as="geometry" />
        </mxCell>
        <mxCell id="kI7NMbDENjyl0bNxZZE--36" style="edgeStyle=none;rounded=0;orthogonalLoop=1;jettySize=auto;html=1;exitX=1;exitY=0.5;exitDx=0;exitDy=0;entryX=0;entryY=0.5;entryDx=0;entryDy=0;strokeColor=#FF0000;endArrow=none;endFill=0;" edge="1" parent="kI7NMbDENjyl0bNxZZE--46" source="kI7NMbDENjyl0bNxZZE--9" target="kI7NMbDENjyl0bNxZZE--14">
          <mxGeometry relative="1" as="geometry" />
        </mxCell>
        <mxCell id="kI7NMbDENjyl0bNxZZE--33" style="edgeStyle=none;rounded=0;orthogonalLoop=1;jettySize=auto;html=1;exitX=1;exitY=0.5;exitDx=0;exitDy=0;entryX=0;entryY=0.5;entryDx=0;entryDy=0;strokeColor=#00FF80;endArrow=none;endFill=0;" edge="1" parent="kI7NMbDENjyl0bNxZZE--46" source="kI7NMbDENjyl0bNxZZE--10" target="kI7NMbDENjyl0bNxZZE--14">
          <mxGeometry relative="1" as="geometry" />
        </mxCell>
        <mxCell id="kI7NMbDENjyl0bNxZZE--30" style="edgeStyle=none;rounded=0;orthogonalLoop=1;jettySize=auto;html=1;exitX=1;exitY=0.5;exitDx=0;exitDy=0;entryX=0;entryY=0.5;entryDx=0;entryDy=0;strokeColor=#3333FF;endArrow=none;endFill=0;" edge="1" parent="kI7NMbDENjyl0bNxZZE--46" source="kI7NMbDENjyl0bNxZZE--11" target="kI7NMbDENjyl0bNxZZE--14">
          <mxGeometry relative="1" as="geometry" />
        </mxCell>
        <mxCell id="kI7NMbDENjyl0bNxZZE--27" style="edgeStyle=none;rounded=0;orthogonalLoop=1;jettySize=auto;html=1;exitX=1;exitY=0.5;exitDx=0;exitDy=0;entryX=0;entryY=0.5;entryDx=0;entryDy=0;strokeColor=#FF0080;endArrow=none;endFill=0;" edge="1" parent="kI7NMbDENjyl0bNxZZE--46" source="kI7NMbDENjyl0bNxZZE--12" target="kI7NMbDENjyl0bNxZZE--14">
          <mxGeometry relative="1" as="geometry" />
        </mxCell>
        <mxCell id="kI7NMbDENjyl0bNxZZE--15" value="" style="ellipse;whiteSpace=wrap;html=1;aspect=fixed;" vertex="1" parent="kI7NMbDENjyl0bNxZZE--46">
          <mxGeometry x="290" y="135" width="30" height="30" as="geometry" />
        </mxCell>
        <mxCell id="kI7NMbDENjyl0bNxZZE--35" style="edgeStyle=none;rounded=0;orthogonalLoop=1;jettySize=auto;html=1;exitX=1;exitY=0.5;exitDx=0;exitDy=0;entryX=0;entryY=0.5;entryDx=0;entryDy=0;strokeColor=#FF0000;endArrow=none;endFill=0;" edge="1" parent="kI7NMbDENjyl0bNxZZE--46" source="kI7NMbDENjyl0bNxZZE--9" target="kI7NMbDENjyl0bNxZZE--15">
          <mxGeometry relative="1" as="geometry" />
        </mxCell>
        <mxCell id="kI7NMbDENjyl0bNxZZE--32" style="edgeStyle=none;rounded=0;orthogonalLoop=1;jettySize=auto;html=1;exitX=1;exitY=0.5;exitDx=0;exitDy=0;entryX=0;entryY=0.5;entryDx=0;entryDy=0;strokeColor=#00FF80;endArrow=none;endFill=0;" edge="1" parent="kI7NMbDENjyl0bNxZZE--46" source="kI7NMbDENjyl0bNxZZE--10" target="kI7NMbDENjyl0bNxZZE--15">
          <mxGeometry relative="1" as="geometry" />
        </mxCell>
        <mxCell id="kI7NMbDENjyl0bNxZZE--29" style="edgeStyle=none;rounded=0;orthogonalLoop=1;jettySize=auto;html=1;exitX=1;exitY=0.5;exitDx=0;exitDy=0;entryX=0;entryY=0.5;entryDx=0;entryDy=0;strokeColor=#3333FF;endArrow=none;endFill=0;" edge="1" parent="kI7NMbDENjyl0bNxZZE--46" source="kI7NMbDENjyl0bNxZZE--11" target="kI7NMbDENjyl0bNxZZE--15">
          <mxGeometry relative="1" as="geometry" />
        </mxCell>
        <mxCell id="kI7NMbDENjyl0bNxZZE--26" style="edgeStyle=none;rounded=0;orthogonalLoop=1;jettySize=auto;html=1;exitX=1;exitY=0.5;exitDx=0;exitDy=0;entryX=0;entryY=0.5;entryDx=0;entryDy=0;endArrow=none;endFill=0;strokeColor=#FF0080;" edge="1" parent="kI7NMbDENjyl0bNxZZE--46" source="kI7NMbDENjyl0bNxZZE--12" target="kI7NMbDENjyl0bNxZZE--15">
          <mxGeometry relative="1" as="geometry" />
        </mxCell>
        <mxCell id="kI7NMbDENjyl0bNxZZE--16" value="" style="ellipse;whiteSpace=wrap;html=1;aspect=fixed;" vertex="1" parent="kI7NMbDENjyl0bNxZZE--46">
          <mxGeometry x="400" y="95" width="30" height="30" as="geometry" />
        </mxCell>
        <mxCell id="kI7NMbDENjyl0bNxZZE--42" style="edgeStyle=none;rounded=0;orthogonalLoop=1;jettySize=auto;html=1;exitX=1;exitY=0.5;exitDx=0;exitDy=0;entryX=0;entryY=0.5;entryDx=0;entryDy=0;strokeColor=#7F00FF;endArrow=none;endFill=0;" edge="1" parent="kI7NMbDENjyl0bNxZZE--46" source="kI7NMbDENjyl0bNxZZE--13" target="kI7NMbDENjyl0bNxZZE--16">
          <mxGeometry relative="1" as="geometry" />
        </mxCell>
        <mxCell id="kI7NMbDENjyl0bNxZZE--40" style="edgeStyle=none;rounded=0;orthogonalLoop=1;jettySize=auto;html=1;exitX=1;exitY=0.5;exitDx=0;exitDy=0;entryX=0;entryY=0.5;entryDx=0;entryDy=0;strokeColor=#FFB366;endArrow=none;endFill=0;" edge="1" parent="kI7NMbDENjyl0bNxZZE--46" source="kI7NMbDENjyl0bNxZZE--14" target="kI7NMbDENjyl0bNxZZE--16">
          <mxGeometry relative="1" as="geometry" />
        </mxCell>
        <mxCell id="kI7NMbDENjyl0bNxZZE--38" style="edgeStyle=none;rounded=0;orthogonalLoop=1;jettySize=auto;html=1;exitX=1;exitY=0.5;exitDx=0;exitDy=0;entryX=0;entryY=0.5;entryDx=0;entryDy=0;strokeColor=#00CCCC;endArrow=none;endFill=0;" edge="1" parent="kI7NMbDENjyl0bNxZZE--46" source="kI7NMbDENjyl0bNxZZE--15" target="kI7NMbDENjyl0bNxZZE--16">
          <mxGeometry relative="1" as="geometry" />
        </mxCell>
        <mxCell id="kI7NMbDENjyl0bNxZZE--17" value="" style="ellipse;whiteSpace=wrap;html=1;aspect=fixed;" vertex="1" parent="kI7NMbDENjyl0bNxZZE--46">
          <mxGeometry x="400" y="45" width="30" height="30" as="geometry" />
        </mxCell>
        <mxCell id="kI7NMbDENjyl0bNxZZE--43" style="edgeStyle=none;rounded=0;orthogonalLoop=1;jettySize=auto;html=1;exitX=1;exitY=0.5;exitDx=0;exitDy=0;entryX=0;entryY=0.5;entryDx=0;entryDy=0;strokeColor=#7F00FF;endArrow=none;endFill=0;" edge="1" parent="kI7NMbDENjyl0bNxZZE--46" source="kI7NMbDENjyl0bNxZZE--13" target="kI7NMbDENjyl0bNxZZE--17">
          <mxGeometry relative="1" as="geometry" />
        </mxCell>
        <mxCell id="kI7NMbDENjyl0bNxZZE--41" style="edgeStyle=none;rounded=0;orthogonalLoop=1;jettySize=auto;html=1;exitX=1;exitY=0.5;exitDx=0;exitDy=0;entryX=0;entryY=0.5;entryDx=0;entryDy=0;strokeColor=#FFB366;endArrow=none;endFill=0;" edge="1" parent="kI7NMbDENjyl0bNxZZE--46" source="kI7NMbDENjyl0bNxZZE--14" target="kI7NMbDENjyl0bNxZZE--17">
          <mxGeometry relative="1" as="geometry" />
        </mxCell>
        <mxCell id="kI7NMbDENjyl0bNxZZE--39" style="edgeStyle=none;rounded=0;orthogonalLoop=1;jettySize=auto;html=1;exitX=1;exitY=0.5;exitDx=0;exitDy=0;entryX=0;entryY=0.5;entryDx=0;entryDy=0;strokeColor=#00CCCC;endArrow=none;endFill=0;" edge="1" parent="kI7NMbDENjyl0bNxZZE--46" source="kI7NMbDENjyl0bNxZZE--15" target="kI7NMbDENjyl0bNxZZE--17">
          <mxGeometry relative="1" as="geometry" />
        </mxCell>
        <mxCell id="kI7NMbDENjyl0bNxZZE--44" value="entrada" style="text;html=1;strokeColor=none;fillColor=none;align=center;verticalAlign=middle;whiteSpace=wrap;rounded=0;" vertex="1" parent="kI7NMbDENjyl0bNxZZE--46">
          <mxGeometry y="75" width="60" height="30" as="geometry" />
        </mxCell>
        <mxCell id="kI7NMbDENjyl0bNxZZE--45" value="salida" style="text;html=1;strokeColor=none;fillColor=none;align=center;verticalAlign=middle;whiteSpace=wrap;rounded=0;" vertex="1" parent="kI7NMbDENjyl0bNxZZE--46">
          <mxGeometry x="450" y="65" width="60" height="30" as="geometry" />
        </mxCell>
        <mxCell id="kI7NMbDENjyl0bNxZZE--47" value="Lo llaman la caja negra por que puede ser dificil entender que hacen las redes neuronales" style="text;html=1;strokeColor=none;fillColor=none;align=center;verticalAlign=middle;whiteSpace=wrap;rounded=0;" vertex="1" parent="1">
          <mxGeometry x="300" y="130" width="180" height="40" as="geometry" />
        </mxCell>
        <mxCell id="kI7NMbDENjyl0bNxZZE--49" value="Qué hacen las redes neuronales?" style="text;html=1;strokeColor=none;fillColor=none;align=center;verticalAlign=middle;whiteSpace=wrap;rounded=0;" vertex="1" parent="1">
          <mxGeometry x="560" y="50" width="220" height="30" as="geometry" />
        </mxCell>
        <mxCell id="kI7NMbDENjyl0bNxZZE--50" value="Cómo lo hacen?" style="text;html=1;strokeColor=none;fillColor=none;align=center;verticalAlign=middle;whiteSpace=wrap;rounded=0;" vertex="1" parent="1">
          <mxGeometry x="570" y="90" width="220" height="30" as="geometry" />
        </mxCell>
        <mxCell id="kI7NMbDENjyl0bNxZZE--51" value="backpropagation" style="text;html=1;strokeColor=none;fillColor=none;align=center;verticalAlign=middle;whiteSpace=wrap;rounded=0;" vertex="1" parent="1">
          <mxGeometry x="570" y="130" width="220" height="30" as="geometry" />
        </mxCell>
        <mxCell id="kI7NMbDENjyl0bNxZZE--52" value="variaciones de las redes neuronales" style="text;html=1;strokeColor=none;fillColor=none;align=center;verticalAlign=middle;whiteSpace=wrap;rounded=0;" vertex="1" parent="1">
          <mxGeometry x="570" y="180" width="220" height="30" as="geometry" />
        </mxCell>
      </root>
    </mxGraphModel>
  </diagram>
</mxfile>
